<mxfile host="Electron" modified="2025-02-26T20:30:26.917Z" agent="Mozilla/5.0 (Windows NT 10.0; Win64; x64) AppleWebKit/537.36 (KHTML, like Gecko) draw.io/22.1.16 Chrome/120.0.6099.109 Electron/28.1.0 Safari/537.36" etag="3WDObCE4gtDX9S3IXuen" version="22.1.16" type="device">
  <diagram name="Page-1" id="Cmp7zFQ0868JdHr70kXF">
    <mxGraphModel dx="875" dy="518" grid="1" gridSize="10" guides="1" tooltips="1" connect="1" arrows="1" fold="1" page="1" pageScale="1" pageWidth="850" pageHeight="1100" math="0" shadow="0">
      <root>
        <mxCell id="0" />
        <mxCell id="1" parent="0" />
        <mxCell id="0WOaj2Nn0cIx8hXpAVIb-5" value="&amp;nbsp;" style="shape=folder;fontStyle=1;spacingTop=10;tabWidth=100;tabHeight=20;tabPosition=left;html=1;whiteSpace=wrap;fillColor=#ffe6cc;strokeColor=#d79b00;fontSize=14;" vertex="1" parent="1">
          <mxGeometry x="120" y="70" width="480" height="390" as="geometry" />
        </mxCell>
        <mxCell id="0WOaj2Nn0cIx8hXpAVIb-11" style="edgeStyle=orthogonalEdgeStyle;rounded=0;orthogonalLoop=1;jettySize=auto;html=1;entryX=0;entryY=0.5;entryDx=0;entryDy=0;fillColor=#d5e8d4;strokeColor=#82b366;" edge="1" parent="1" source="0WOaj2Nn0cIx8hXpAVIb-1" target="0WOaj2Nn0cIx8hXpAVIb-7">
          <mxGeometry relative="1" as="geometry" />
        </mxCell>
        <mxCell id="0WOaj2Nn0cIx8hXpAVIb-31" style="edgeStyle=orthogonalEdgeStyle;rounded=0;orthogonalLoop=1;jettySize=auto;html=1;entryX=0;entryY=0.5;entryDx=0;entryDy=0;fillColor=#d5e8d4;strokeColor=#82b366;" edge="1" parent="1" target="0WOaj2Nn0cIx8hXpAVIb-17">
          <mxGeometry relative="1" as="geometry">
            <mxPoint x="85" y="230" as="sourcePoint" />
            <Array as="points">
              <mxPoint x="85" y="153" />
            </Array>
          </mxGeometry>
        </mxCell>
        <mxCell id="0WOaj2Nn0cIx8hXpAVIb-1" value="Khách hàng" style="shape=umlActor;verticalLabelPosition=bottom;verticalAlign=top;html=1;outlineConnect=0;fillColor=#d5e8d4;strokeColor=#82b366;fontSize=14;" vertex="1" parent="1">
          <mxGeometry x="70" y="235" width="30" height="60" as="geometry" />
        </mxCell>
        <mxCell id="0WOaj2Nn0cIx8hXpAVIb-10" style="edgeStyle=orthogonalEdgeStyle;rounded=0;orthogonalLoop=1;jettySize=auto;html=1;entryX=1;entryY=0.5;entryDx=0;entryDy=0;fillColor=#f8cecc;strokeColor=#b85450;" edge="1" parent="1" source="0WOaj2Nn0cIx8hXpAVIb-2" target="0WOaj2Nn0cIx8hXpAVIb-7">
          <mxGeometry relative="1" as="geometry" />
        </mxCell>
        <mxCell id="0WOaj2Nn0cIx8hXpAVIb-32" style="edgeStyle=orthogonalEdgeStyle;rounded=0;orthogonalLoop=1;jettySize=auto;html=1;entryX=1;entryY=0.5;entryDx=0;entryDy=0;fillColor=#f8cecc;strokeColor=#b85450;" edge="1" parent="1" target="0WOaj2Nn0cIx8hXpAVIb-16">
          <mxGeometry relative="1" as="geometry">
            <mxPoint x="645" y="230" as="sourcePoint" />
            <Array as="points">
              <mxPoint x="645" y="153" />
            </Array>
          </mxGeometry>
        </mxCell>
        <mxCell id="0WOaj2Nn0cIx8hXpAVIb-33" style="edgeStyle=orthogonalEdgeStyle;rounded=0;orthogonalLoop=1;jettySize=auto;html=1;entryX=1;entryY=0.5;entryDx=0;entryDy=0;fillColor=#f8cecc;strokeColor=#b85450;" edge="1" parent="1" target="0WOaj2Nn0cIx8hXpAVIb-18">
          <mxGeometry relative="1" as="geometry">
            <mxPoint x="645" y="320" as="sourcePoint" />
            <Array as="points">
              <mxPoint x="645" y="385" />
            </Array>
          </mxGeometry>
        </mxCell>
        <mxCell id="0WOaj2Nn0cIx8hXpAVIb-2" value="Quản trị viên" style="shape=umlActor;verticalLabelPosition=bottom;verticalAlign=top;html=1;outlineConnect=0;fillColor=#f8cecc;strokeColor=#b85450;fontSize=14;" vertex="1" parent="1">
          <mxGeometry x="630" y="235" width="30" height="60" as="geometry" />
        </mxCell>
        <mxCell id="0WOaj2Nn0cIx8hXpAVIb-8" style="edgeStyle=orthogonalEdgeStyle;rounded=0;orthogonalLoop=1;jettySize=auto;html=1;fillColor=#dae8fc;strokeColor=#6c8ebf;entryX=0.73;entryY=0.95;entryDx=0;entryDy=0;entryPerimeter=0;" edge="1" parent="1" source="0WOaj2Nn0cIx8hXpAVIb-3" target="0WOaj2Nn0cIx8hXpAVIb-7">
          <mxGeometry relative="1" as="geometry">
            <mxPoint x="380" y="300" as="targetPoint" />
            <Array as="points">
              <mxPoint x="380" y="510" />
            </Array>
          </mxGeometry>
        </mxCell>
        <mxCell id="0WOaj2Nn0cIx8hXpAVIb-34" style="edgeStyle=orthogonalEdgeStyle;rounded=0;orthogonalLoop=1;jettySize=auto;html=1;entryX=0.617;entryY=0.977;entryDx=0;entryDy=0;fillColor=#dae8fc;strokeColor=#6c8ebf;entryPerimeter=0;" edge="1" parent="1" target="0WOaj2Nn0cIx8hXpAVIb-20">
          <mxGeometry relative="1" as="geometry">
            <mxPoint x="435" y="470" as="sourcePoint" />
            <Array as="points">
              <mxPoint x="435" y="450" />
              <mxPoint x="230" y="450" />
            </Array>
          </mxGeometry>
        </mxCell>
        <mxCell id="0WOaj2Nn0cIx8hXpAVIb-3" value="Chăm sóc khách hàng" style="shape=umlActor;verticalLabelPosition=bottom;verticalAlign=top;html=1;outlineConnect=0;fillColor=#dae8fc;strokeColor=#6c8ebf;fontSize=14;" vertex="1" parent="1">
          <mxGeometry x="420" y="480" width="30" height="60" as="geometry" />
        </mxCell>
        <mxCell id="0WOaj2Nn0cIx8hXpAVIb-9" style="edgeStyle=orthogonalEdgeStyle;rounded=0;orthogonalLoop=1;jettySize=auto;html=1;fillColor=#e1d5e7;strokeColor=#9673a6;entryX=0.267;entryY=0.95;entryDx=0;entryDy=0;entryPerimeter=0;" edge="1" parent="1" source="0WOaj2Nn0cIx8hXpAVIb-4" target="0WOaj2Nn0cIx8hXpAVIb-7">
          <mxGeometry relative="1" as="geometry">
            <mxPoint x="340" y="300" as="targetPoint" />
            <Array as="points">
              <mxPoint x="340" y="510" />
            </Array>
          </mxGeometry>
        </mxCell>
        <mxCell id="0WOaj2Nn0cIx8hXpAVIb-38" style="edgeStyle=orthogonalEdgeStyle;rounded=0;orthogonalLoop=1;jettySize=auto;html=1;entryX=0.332;entryY=0.961;entryDx=0;entryDy=0;entryPerimeter=0;fillColor=#e1d5e7;strokeColor=#9673a6;" edge="1" parent="1" source="0WOaj2Nn0cIx8hXpAVIb-4" target="0WOaj2Nn0cIx8hXpAVIb-20">
          <mxGeometry relative="1" as="geometry">
            <Array as="points">
              <mxPoint x="200" y="510" />
              <mxPoint x="200" y="410" />
              <mxPoint x="200" y="410" />
            </Array>
          </mxGeometry>
        </mxCell>
        <mxCell id="0WOaj2Nn0cIx8hXpAVIb-40" style="edgeStyle=orthogonalEdgeStyle;rounded=0;orthogonalLoop=1;jettySize=auto;html=1;entryX=0.353;entryY=0.979;entryDx=0;entryDy=0;fillColor=#e1d5e7;strokeColor=#9673a6;entryPerimeter=0;" edge="1" parent="1" target="0WOaj2Nn0cIx8hXpAVIb-18">
          <mxGeometry relative="1" as="geometry">
            <mxPoint x="285" y="470" as="sourcePoint" />
            <Array as="points">
              <mxPoint x="285" y="440" />
              <mxPoint x="500" y="440" />
            </Array>
          </mxGeometry>
        </mxCell>
        <mxCell id="0WOaj2Nn0cIx8hXpAVIb-4" value="Kỹ thuật viên" style="shape=umlActor;verticalLabelPosition=bottom;verticalAlign=top;html=1;outlineConnect=0;fillColor=#e1d5e7;strokeColor=#9673a6;fontSize=14;" vertex="1" parent="1">
          <mxGeometry x="270" y="480" width="30" height="60" as="geometry" />
        </mxCell>
        <mxCell id="0WOaj2Nn0cIx8hXpAVIb-22" style="rounded=0;orthogonalLoop=1;jettySize=auto;html=1;exitX=1;exitY=0;exitDx=0;exitDy=0;entryX=0;entryY=1;entryDx=0;entryDy=0;endArrow=open;endFill=0;dashed=1;" edge="1" parent="1" source="0WOaj2Nn0cIx8hXpAVIb-7" target="0WOaj2Nn0cIx8hXpAVIb-16">
          <mxGeometry relative="1" as="geometry" />
        </mxCell>
        <mxCell id="0WOaj2Nn0cIx8hXpAVIb-23" style="rounded=0;orthogonalLoop=1;jettySize=auto;html=1;exitX=0;exitY=1;exitDx=0;exitDy=0;entryX=1;entryY=0;entryDx=0;entryDy=0;dashed=1;endArrow=open;endFill=0;" edge="1" parent="1" source="0WOaj2Nn0cIx8hXpAVIb-7" target="0WOaj2Nn0cIx8hXpAVIb-20">
          <mxGeometry relative="1" as="geometry" />
        </mxCell>
        <mxCell id="0WOaj2Nn0cIx8hXpAVIb-24" style="rounded=0;orthogonalLoop=1;jettySize=auto;html=1;exitX=1;exitY=1;exitDx=0;exitDy=0;entryX=0;entryY=0;entryDx=0;entryDy=0;dashed=1;endArrow=open;endFill=0;" edge="1" parent="1" source="0WOaj2Nn0cIx8hXpAVIb-7" target="0WOaj2Nn0cIx8hXpAVIb-18">
          <mxGeometry relative="1" as="geometry" />
        </mxCell>
        <mxCell id="0WOaj2Nn0cIx8hXpAVIb-7" value="Đăng nhập" style="ellipse;whiteSpace=wrap;html=1;fontSize=14;" vertex="1" parent="1">
          <mxGeometry x="317.5" y="245" width="85" height="40" as="geometry" />
        </mxCell>
        <mxCell id="0WOaj2Nn0cIx8hXpAVIb-16" value="Quản lý&lt;br&gt;tài khoản" style="ellipse;whiteSpace=wrap;html=1;fontSize=14;" vertex="1" parent="1">
          <mxGeometry x="470" y="132.5" width="85" height="40" as="geometry" />
        </mxCell>
        <mxCell id="0WOaj2Nn0cIx8hXpAVIb-41" style="rounded=0;orthogonalLoop=1;jettySize=auto;html=1;exitX=1;exitY=1;exitDx=0;exitDy=0;entryX=0;entryY=0;entryDx=0;entryDy=0;dashed=1;endArrow=open;endFill=0;" edge="1" parent="1" source="0WOaj2Nn0cIx8hXpAVIb-17" target="0WOaj2Nn0cIx8hXpAVIb-7">
          <mxGeometry relative="1" as="geometry" />
        </mxCell>
        <mxCell id="0WOaj2Nn0cIx8hXpAVIb-17" value="Yêu cầu&lt;br&gt;sửa chữa" style="ellipse;whiteSpace=wrap;html=1;fontSize=14;" vertex="1" parent="1">
          <mxGeometry x="150" y="130" width="100" height="45" as="geometry" />
        </mxCell>
        <mxCell id="0WOaj2Nn0cIx8hXpAVIb-18" value="Báo cáo thống kê" style="ellipse;whiteSpace=wrap;html=1;fontSize=14;" vertex="1" parent="1">
          <mxGeometry x="470" y="365" width="85" height="40" as="geometry" />
        </mxCell>
        <mxCell id="0WOaj2Nn0cIx8hXpAVIb-20" value="Quản lý yêu&lt;br&gt;cầu sửa chữa" style="ellipse;whiteSpace=wrap;html=1;fontSize=14;" vertex="1" parent="1">
          <mxGeometry x="165" y="360" width="105" height="50" as="geometry" />
        </mxCell>
        <mxCell id="0WOaj2Nn0cIx8hXpAVIb-25" value="&lt;font style=&quot;font-size: 14px;&quot;&gt;&amp;lt;&amp;lt;include&amp;gt;&amp;gt;&lt;/font&gt;" style="text;html=1;strokeColor=none;fillColor=none;align=center;verticalAlign=middle;whiteSpace=wrap;rounded=0;rotation=45;" vertex="1" parent="1">
          <mxGeometry x="418" y="303" width="60" height="30" as="geometry" />
        </mxCell>
        <mxCell id="0WOaj2Nn0cIx8hXpAVIb-26" value="&lt;font style=&quot;font-size: 14px;&quot;&gt;&amp;lt;&amp;lt;extend&amp;gt;&amp;gt;&lt;/font&gt;" style="text;html=1;strokeColor=none;fillColor=none;align=center;verticalAlign=middle;whiteSpace=wrap;rounded=0;rotation=40;" vertex="1" parent="1">
          <mxGeometry x="260" y="183" width="60" height="30" as="geometry" />
        </mxCell>
        <mxCell id="0WOaj2Nn0cIx8hXpAVIb-27" value="&lt;font style=&quot;font-size: 14px;&quot;&gt;&amp;lt;&amp;lt;include&amp;gt;&amp;gt;&lt;/font&gt;" style="text;html=1;strokeColor=none;fillColor=none;align=center;verticalAlign=middle;whiteSpace=wrap;rounded=0;rotation=-44;" vertex="1" parent="1">
          <mxGeometry x="395" y="188" width="60" height="30" as="geometry" />
        </mxCell>
        <mxCell id="0WOaj2Nn0cIx8hXpAVIb-29" value="&lt;font style=&quot;font-size: 14px;&quot;&gt;&amp;lt;&amp;lt;include&amp;gt;&amp;gt;&lt;/font&gt;" style="text;html=1;strokeColor=none;fillColor=none;align=center;verticalAlign=middle;whiteSpace=wrap;rounded=0;rotation=-50;" vertex="1" parent="1">
          <mxGeometry x="253" y="300" width="60" height="30" as="geometry" />
        </mxCell>
        <mxCell id="0WOaj2Nn0cIx8hXpAVIb-39" style="edgeStyle=orthogonalEdgeStyle;rounded=0;orthogonalLoop=1;jettySize=auto;html=1;entryX=0.696;entryY=0.957;entryDx=0;entryDy=0;entryPerimeter=0;fillColor=#dae8fc;strokeColor=#6c8ebf;" edge="1" parent="1" source="0WOaj2Nn0cIx8hXpAVIb-3" target="0WOaj2Nn0cIx8hXpAVIb-18">
          <mxGeometry relative="1" as="geometry" />
        </mxCell>
      </root>
    </mxGraphModel>
  </diagram>
</mxfile>
